<svg id="Logo" xmlns="http://www.w3.org/2000/svg" viewBox="0 0 276 78"><style>.st0{fill:#231f20}.st1{fill:#20d48b}</style><path class="st0" d="M62.4.9H15.7c-.4 0-.8.1-1.1.4l-4.3 4.5-4.5 4.6L1.1 15c-.3.2-.4.6-.4.9v59.8c0 .3.1.7.4.9.2.4.6.5.9.5h46.7c.4 0 .7-.1 1-.4l4.6-4.6 4.6-4.6 4.6-4.6c.3-.3.4-.6.4-.9V2.2c-.1-.7-.7-1.3-1.5-1.3zM17.1 3.6h44v57.1h-44V3.6zm-.8 59.8h42.9l-1.9 1.9H14.4l1.9-1.9zm-3.8-56l1.9-2v56.1l-1.9 1.9v-56zm-.8 60.5h42.9l-1.9 1.9H9.9l1.8-1.9zM8 12l1.9-1.9v56L8 67.9V12zM5.3 70.6l-1.9 1.9v-56l1.9-1.9v56zm42.8 3.8H5.3l1.9-1.9H50l-1.9 1.9z"/><path class="st1" d="M39.1 34.7c-6 0-11-4.9-11-11s4.9-11 11-11c6 0 11 4.9 11 11s-5 11-11 11zm0-19.2c-4.6 0-8.3 3.7-8.3 8.3 0 4.6 3.7 8.3 8.3 8.3 4.6 0 8.3-3.7 8.3-8.3 0-4.6-3.7-8.3-8.3-8.3z"/><path class="st1" d="M37.9 27.6c-.4 0-.7-.1-1-.4l-2.5-2.5c-.5-.5-.5-1.4 0-1.9s1.4-.5 1.9 0l1.5 1.5 4-4c.5-.5 1.4-.5 1.9 0s.5 1.4 0 1.9l-5 5c-.2.3-.5.4-.8.4z"/><path class="st0" d="M52 44.8H26.2c-.7 0-1.3-.6-1.3-1.3s.6-1.3 1.3-1.3H52c.7 0 1.3.6 1.3 1.3s-.6 1.3-1.3 1.3zm-4.5 6.3H30.7c-.7 0-1.3-.6-1.3-1.3s.6-1.3 1.3-1.3h16.7c.7 0 1.3.6 1.3 1.3s-.5 1.3-1.2 1.3zm26.1-7.6v-21C73.6 17 75 13 78 10.4c2.9-2.6 6.8-3.9 11.7-3.9s8.8 1.3 11.8 3.9c3 2.6 4.4 6.6 4.4 12.2v21c0 5.5-1.5 9.6-4.4 12.2-3 2.6-6.9 3.9-11.8 3.9s-8.8-1.3-11.7-3.9c-3-2.7-4.4-6.8-4.4-12.3zm7.6 0c0 6.2 2.8 9.3 8.5 9.3 2.7 0 4.8-.8 6.3-2.3 1.5-1.5 2.2-3.9 2.2-7v-21c0-3.1-.7-5.4-2.2-7-1.5-1.5-3.6-2.3-6.3-2.3-5.7 0-8.5 3.1-8.5 9.3v21zm32.4 13.1V27.5c0-.7.3-1.3 1-1.8s1.6-.7 2.6-.7 1.8.2 2.4.7c.7.5 1 1.1 1 1.8v3.2c.8-1.7 2.1-3.1 3.7-4.3s3.5-1.8 5.4-1.8h2.3c.8 0 1.4.3 2 1 .6.7.9 1.4.9 2.4 0 .9-.3 1.7-.9 2.4s-1.2 1-2 1h-2.3c-2.3 0-4.3 1-6.1 2.9-1.8 2-2.6 4.5-2.6 7.6v14.7c0 .6-.4 1.2-1.2 1.7-.8.5-1.7.8-2.7.8-1.1 0-1.9-.3-2.6-.8-.5-.5-.9-1.1-.9-1.7zm23.8-11.2v-6.6c0-3.9 1.3-7.2 3.8-10s5.6-4.2 9.1-4.2c2.1 0 4 .5 5.6 1.6s2.9 2.4 3.7 3.9V7.2c0-.7.4-1.3 1.1-1.8.7-.5 1.6-.7 2.7-.7s2 .2 2.7.7c.7.5 1 1 1 1.8v49.4c0 .6-.4 1.2-1.1 1.7-.7.5-1.6.8-2.7.8-.9 0-1.7-.3-2.4-.8s-1-1.1-1-1.8V54c-.8 1.6-2.1 2.9-3.9 4-1.8 1.1-3.9 1.7-6 1.7-3.4 0-6.3-1.5-8.9-4.4-2.5-2.8-3.7-6.2-3.7-9.9zm7.5 0c0 2 .7 3.7 2.2 5.3 1.4 1.5 3.1 2.3 5.1 2.3 1.9 0 3.6-.7 5.1-2.2 1.5-1.5 2.3-2.7 2.3-3.8v-8.2c0-2.2-.7-4-2.2-5.4-1.5-1.4-3.2-2.1-5.1-2.1-2 0-3.7.8-5.1 2.3-1.5 1.5-2.2 3.2-2.2 5.1l-.1 6.7zm29 0v-6.8c0-3.8 1.5-7.1 4.4-9.8 2.9-2.8 6.5-4.1 10.6-4.1 3.9 0 7.3 1.2 10.1 3.7s4.2 5.6 4.2 9.5c0 1.5-.2 2.7-.5 3.6-.3.9-.9 1.5-1.6 1.9-.7.4-1.4.6-2 .7-.6.1-1.4.1-2.4.1h-15.2v1.7c0 2.4.9 4.3 2.6 5.8s4 2.1 6.8 2.1c2 0 3.8-.5 5.6-1.4 1.8-.9 2.8-1.4 3.2-1.4.8 0 1.5.4 2.1 1.2s.9 1.5.9 2.2c0 1.2-1.2 2.4-3.5 3.6-2.3 1.2-5.1 1.8-8.5 1.8-4.9 0-8.9-1.3-12-4-3.3-2.7-4.8-6.1-4.8-10.4zm7.5-6.1h12c1.1 0 1.8-.1 2.1-.4.4-.3.5-.9.5-1.7 0-1.9-.7-3.5-2.1-4.8s-3.1-2-5.2-2c-2 0-3.7.6-5.2 1.9-1.4 1.3-2.2 2.8-2.2 4.8l.1 2.2zm27.9 17.3V27.5c0-.7.3-1.3 1-1.8s1.6-.7 2.6-.7 1.8.2 2.4.7c.7.5 1 1.1 1 1.8v3.2c.8-1.7 2.1-3.1 3.7-4.3s3.5-1.8 5.4-1.8h2.3c.8 0 1.4.3 2 1 .6.7.9 1.4.9 2.4 0 .9-.3 1.7-.9 2.4s-1.2 1-2 1h-2.3c-2.3 0-4.3 1-6.1 2.9-1.8 2-2.6 4.5-2.6 7.6v14.7c0 .6-.4 1.2-1.2 1.7s-1.7.8-2.7.8c-1.1 0-1.9-.3-2.6-.8-.6-.5-.9-1.1-.9-1.7z"/><path class="st1" d="M236.4 57.3V5.9c0-.5.2-.9.6-1.2.4-.3 1-.5 1.7-.5s1.2.2 1.7.5.7.7.7 1.2v51.3c0 .5-.2.9-.7 1.3-.5.4-1 .6-1.7.6-.6 0-1.2-.2-1.6-.6-.5-.3-.7-.8-.7-1.2zm10.8-30.4c0-.6.3-1.1.9-1.5.6-.5 1.3-.7 1.9-.7.9 0 1.5.3 1.7 1l9.9 26.4 9.3-26.4c.3-.7.8-1 1.6-1 .6 0 1.3.2 1.9.7.6.5 1 1 1 1.6 0 .3 0 .5-.1.6L264 57.8l-1.3 3.5c-.2.6-.7 1.8-1.4 3.4-.7 1.6-1.3 2.8-1.8 3.5l-1.9 2.9c-.8 1.2-1.6 2.1-2.3 2.6-.7.5-1.6 1-2.7 1.5s-2.1.7-3.2.7c-1.4 0-2.2-.7-2.2-2.2 0-1.5.5-2.2 1.4-2.2 2.2 0 4.3-1.3 6.2-4 1.9-2.7 3.3-5.9 4.3-9.9l-11.7-30.1c-.2-.2-.2-.4-.2-.6z"/></svg>