<?xml version="1.0" encoding="utf-8"?>
<svg version="1.1" id="Logo" xmlns="http://www.w3.org/2000/svg" xmlns:xlink="http://www.w3.org/1999/xlink" x="0px" y="0px"
	viewBox="0 0 276 78" style="enable-background:new 0 0 276 78;" xml:space="preserve">
<style type="text/css">
	.st0{fill:#231F20;}
	.st1{fill:#20D48B;}
</style>
<path class="st0" d="M62.4,0.9H15.8c0,0-0.1,0-0.1,0c-0.4,0-0.8,0.1-1.1,0.4l-4.3,4.5l0,0l-4.5,4.6L1.1,15c-0.3,0.2-0.4,0.6-0.4,0.9
	v59.8c0,0.3,0.1,0.7,0.4,0.9C1.3,77,1.7,77.1,2,77.1h46.7c0.4,0,0.7-0.1,1-0.4l4.6-4.6l4.6-4.6l4.6-4.6c0.3-0.3,0.4-0.6,0.4-0.9V2.2
	C63.8,1.5,63.2,0.9,62.4,0.9z M17.1,3.6h44v57.1h-44V3.6z M16.3,63.4h42.9l-1.9,1.9H14.4L16.3,63.4z M12.5,7.4l1.9-2v56.1l-1.9,1.9
	V7.4z M11.7,67.9h42.9l-1.9,1.9H9.9L11.7,67.9z M8,12l1.9-1.9v56L8,67.9V12z M5.3,70.6l-1.9,1.9v-56l1.9-1.9V70.6z M48.1,74.4H5.3
	l1.9-1.9H50L48.1,74.4z"/>
<path class="st1" d="M39.1,34.7c-6,0-11-4.9-11-11c0-6.1,4.9-11,11-11c6,0,11,4.9,11,11C50.1,29.8,45.1,34.7,39.1,34.7z M39.1,15.5
	c-4.6,0-8.3,3.7-8.3,8.3c0,4.6,3.7,8.3,8.3,8.3c4.6,0,8.3-3.7,8.3-8.3C47.4,19.2,43.7,15.5,39.1,15.5z"/>
<path class="st1" d="M37.9,27.6L37.9,27.6c-0.4,0-0.7-0.1-1-0.4l-2.5-2.5c-0.5-0.5-0.5-1.4,0-1.9c0.5-0.5,1.4-0.5,1.9,0l1.5,1.5l4-4
	c0.5-0.5,1.4-0.5,1.9,0c0.5,0.5,0.5,1.4,0,1.9l-5,5C38.5,27.5,38.2,27.6,37.9,27.6z"/>
<path class="st0" d="M52,44.8H26.2c-0.7,0-1.3-0.6-1.3-1.3s0.6-1.3,1.3-1.3H52c0.7,0,1.3,0.6,1.3,1.3S52.7,44.8,52,44.8z"/>
<path class="st0" d="M47.5,51.1H30.7c-0.7,0-1.3-0.6-1.3-1.3s0.6-1.3,1.3-1.3h16.7c0.7,0,1.3,0.6,1.3,1.3S48.2,51.1,47.5,51.1z"/>
<path class="st0" d="M73.6,43.5v-21C73.6,17,75,13,78,10.4c2.9-2.6,6.8-3.9,11.7-3.9s8.8,1.3,11.8,3.9c3,2.6,4.4,6.6,4.4,12.2v21
	c0,5.5-1.5,9.6-4.4,12.2c-3,2.6-6.9,3.9-11.8,3.9s-8.8-1.3-11.7-3.9C75,53.1,73.6,49,73.6,43.5z M81.2,43.5c0,6.2,2.8,9.3,8.5,9.3
	c2.7,0,4.8-0.8,6.3-2.3c1.5-1.5,2.2-3.9,2.2-7v-21c0-3.1-0.7-5.4-2.2-7c-1.5-1.5-3.6-2.3-6.3-2.3c-5.7,0-8.5,3.1-8.5,9.3V43.5z"/>
<path class="st0" d="M113.6,56.6V27.5c0-0.7,0.3-1.3,1-1.8c0.7-0.5,1.6-0.7,2.6-0.7c1,0,1.8,0.2,2.4,0.7c0.7,0.5,1,1.1,1,1.8v3.2
	c0.8-1.7,2.1-3.1,3.7-4.3s3.5-1.8,5.4-1.8h2.3c0.8,0,1.4,0.3,2,1c0.6,0.7,0.9,1.4,0.9,2.4c0,0.9-0.3,1.7-0.9,2.4s-1.2,1-2,1h-2.3
	c-2.3,0-4.3,1-6.1,2.9c-1.8,2-2.6,4.5-2.6,7.6v14.7c0,0.6-0.4,1.2-1.2,1.7c-0.8,0.5-1.7,0.8-2.7,0.8c-1.1,0-1.9-0.3-2.6-0.8
	C114,57.8,113.6,57.2,113.6,56.6z"/>
<path class="st0" d="M137.4,45.4v-6.6c0-3.9,1.3-7.2,3.8-10c2.5-2.8,5.6-4.2,9.1-4.2c2.1,0,4,0.5,5.6,1.6s2.9,2.4,3.7,3.9V7.2
	c0-0.7,0.4-1.3,1.1-1.8c0.7-0.5,1.6-0.7,2.7-0.7c1.1,0,2,0.2,2.7,0.7c0.7,0.5,1,1,1,1.8v49.4c0,0.6-0.4,1.2-1.1,1.7
	c-0.7,0.5-1.6,0.8-2.7,0.8c-0.9,0-1.7-0.3-2.4-0.8c-0.7-0.5-1-1.1-1-1.8V54c-0.8,1.6-2.1,2.9-3.9,4c-1.8,1.1-3.9,1.7-6,1.7
	c-3.4,0-6.3-1.5-8.9-4.4C138.6,52.5,137.4,49.1,137.4,45.4z M144.9,45.4c0,2,0.7,3.7,2.2,5.3c1.4,1.5,3.1,2.3,5.1,2.3
	c1.9,0,3.6-0.7,5.1-2.2c1.5-1.5,2.3-2.7,2.3-3.8v-8.2c0-2.2-0.7-4-2.2-5.4c-1.5-1.4-3.2-2.1-5.1-2.1c-2,0-3.7,0.8-5.1,2.3
	c-1.5,1.5-2.2,3.2-2.2,5.1L144.9,45.4L144.9,45.4z"/>
<path class="st0" d="M173.9,45.4v-6.8c0-3.8,1.5-7.1,4.4-9.8c2.9-2.8,6.5-4.1,10.6-4.1c3.9,0,7.3,1.2,10.1,3.7
	c2.8,2.5,4.2,5.6,4.2,9.5c0,1.5-0.2,2.7-0.5,3.6c-0.3,0.9-0.9,1.5-1.6,1.9c-0.7,0.4-1.4,0.6-2,0.7c-0.6,0.1-1.4,0.1-2.4,0.1h-15.2
	v1.7c0,2.4,0.9,4.3,2.6,5.8s4,2.1,6.8,2.1c2,0,3.8-0.5,5.6-1.4c1.8-0.9,2.8-1.4,3.2-1.4c0.8,0,1.5,0.4,2.1,1.2s0.9,1.5,0.9,2.2
	c0,1.2-1.2,2.4-3.5,3.6c-2.3,1.2-5.1,1.8-8.5,1.8c-4.9,0-8.9-1.3-12-4C175.4,53.1,173.9,49.7,173.9,45.4z M181.4,39.3h12
	c1.1,0,1.8-0.1,2.1-0.4c0.4-0.3,0.5-0.9,0.5-1.7c0-1.9-0.7-3.5-2.1-4.8s-3.1-2-5.2-2c-2,0-3.7,0.6-5.2,1.9c-1.4,1.3-2.2,2.8-2.2,4.8
	L181.4,39.3L181.4,39.3z"/>
<path class="st0" d="M209.3,56.6V27.5c0-0.7,0.3-1.3,1-1.8c0.7-0.5,1.6-0.7,2.6-0.7c1,0,1.8,0.2,2.4,0.7c0.7,0.5,1,1.1,1,1.8v3.2
	c0.8-1.7,2.1-3.1,3.7-4.3s3.5-1.8,5.4-1.8h2.3c0.8,0,1.4,0.3,2,1c0.6,0.7,0.9,1.4,0.9,2.4c0,0.9-0.3,1.7-0.9,2.4s-1.2,1-2,1h-2.3
	c-2.3,0-4.3,1-6.1,2.9c-1.8,2-2.6,4.5-2.6,7.6v14.7c0,0.6-0.4,1.2-1.2,1.7s-1.7,0.8-2.7,0.8c-1.1,0-1.9-0.3-2.6-0.8
	C209.6,57.8,209.3,57.2,209.3,56.6z"/>
<path class="st1" d="M236.4,57.3V5.9c0-0.5,0.2-0.9,0.6-1.2c0.4-0.3,1-0.5,1.7-0.5s1.2,0.2,1.7,0.5c0.5,0.3,0.7,0.7,0.7,1.2v51.3
	c0,0.5-0.2,0.9-0.7,1.3c-0.5,0.4-1,0.6-1.7,0.6c-0.6,0-1.2-0.2-1.6-0.6C236.6,58.2,236.4,57.7,236.4,57.3z"/>
<path class="st1" d="M247.2,26.9c0-0.6,0.3-1.1,0.9-1.5c0.6-0.5,1.3-0.7,1.9-0.7c0.9,0,1.5,0.3,1.7,1l9.9,26.4l9.3-26.4
	c0.3-0.7,0.8-1,1.6-1c0.6,0,1.3,0.2,1.9,0.7c0.6,0.5,1,1,1,1.6c0,0.3,0,0.5-0.1,0.6L264,57.8l-1.3,3.5c-0.2,0.6-0.7,1.8-1.4,3.4
	c-0.7,1.6-1.3,2.8-1.8,3.5l-1.9,2.9c-0.8,1.2-1.6,2.1-2.3,2.6c-0.7,0.5-1.6,1-2.7,1.5c-1.1,0.5-2.1,0.7-3.2,0.7
	c-1.4,0-2.2-0.7-2.2-2.2c0-1.5,0.5-2.2,1.4-2.2c2.2,0,4.3-1.3,6.2-4c1.9-2.7,3.3-5.9,4.3-9.9l-11.7-30.1
	C247.2,27.3,247.2,27.1,247.2,26.9z"/>
</svg>
