<svg xmlns="http://www.w3.org/2000/svg" viewBox="0 0 63 63"><defs><style>.cls-1{fill:#228ae6;}</style></defs><title>fontawesome</title><g id="Layer_2" data-name="Layer 2"><g id="Layer_1-2" data-name="Layer 1"><path class="cls-1" d="M56,0a6.74,6.74,0,0,1,4.92,2.11A6.74,6.74,0,0,1,63,7V56a7.21,7.21,0,0,1-7,7H7a6.74,6.74,0,0,1-4.92-2.11A6.74,6.74,0,0,1,0,56V7A6.74,6.74,0,0,1,2.11,2.11,6.74,6.74,0,0,1,7,0ZM49.5,39.94h.14V20.25a1,1,0,0,0-.42-.77,1.3,1.3,0,0,0-.84-.36,4.73,4.73,0,0,0-1.69.71,17.14,17.14,0,0,1-5.91,1.55A4.94,4.94,0,0,1,39,21.09c-1.78-.65-3.18-1.12-4.22-1.4a17.69,17.69,0,0,0-4.35-.57,23.14,23.14,0,0,0-8.72,2,1.88,1.88,0,0,1-.71.43V18.84a4.16,4.16,0,0,0,1.83-3.65,4.41,4.41,0,0,0-1.4-3.31A4.74,4.74,0,0,0,18,10.55a4.56,4.56,0,0,0-4.64,4.64,4.38,4.38,0,0,0,1.83,3.65v30.8a2.7,2.7,0,0,0,.84,2,2.63,2.63,0,0,0,1.9.84,3,3,0,0,0,1.83-.56,2.12,2.12,0,0,0,.91-1.41v-.14c.1-.09.14-.32.14-.7V43.31l.57-.28a23.64,23.64,0,0,1,9.42-2.39,14.64,14.64,0,0,1,5.48,1.27A13.12,13.12,0,0,0,40.92,43a19.64,19.64,0,0,0,7.6-2C49.17,40.78,49.5,40.41,49.5,39.94Z"/></g></g></svg>