<svg xmlns="http://www.w3.org/2000/svg" viewBox="0 0 63 63"><defs><style>.cls-1{fill:#f44d27;}</style></defs><title>git</title><g id="Layer_2" data-name="Layer 2"><g id="Layer_1-2" data-name="Layer 1"><path class="cls-1" d="M63,56.25A6.73,6.73,0,0,1,56.25,63H6.75A6.52,6.52,0,0,1,2,61a6.52,6.52,0,0,1-2-4.78V6.75A6.52,6.52,0,0,1,2,2,6.52,6.52,0,0,1,6.75,0h49.5A6.52,6.52,0,0,1,61,2a6.52,6.52,0,0,1,2,4.78ZM23.62,21.09A8.67,8.67,0,0,0,17.93,20a8.29,8.29,0,0,0-5.06,2.6,7.81,7.81,0,0,0-2,5.55A8.3,8.3,0,0,0,12,32.2a6,6,0,0,0,3,2.82,2.59,2.59,0,0,0-1.41,1.75,5,5,0,0,0-.07,2.75,3.16,3.16,0,0,0,1.62,2.1v.15c-3.1,1-4.64,2.9-4.64,5.62a5.54,5.54,0,0,0,3.09,5.2A12.07,12.07,0,0,0,19.83,54Q29,54,29,46.41a4.59,4.59,0,0,0-2.11-4.08,13.67,13.67,0,0,0-4.22-1.69A9.93,9.93,0,0,1,20,39.8a2,2,0,0,1-1.13-1.69,2.16,2.16,0,0,1,2-2.25,7.91,7.91,0,0,0,4.92-2.81,8.21,8.21,0,0,0,1.83-5.35,6.08,6.08,0,0,0-.42-2.11c.75-.18,1.41-.37,2-.56V20A16.29,16.29,0,0,1,23.62,21.09Zm.29,26q0,2.6-3.8,2.6-4.36,0-4.36-2.53t3.94-2.67C22.5,44.44,23.91,45.3,23.91,47ZM19.27,31.5q3.09,0,3.09-3.52a3.37,3.37,0,0,0-1.55-3.16,2.84,2.84,0,0,0-3.09,0,3.51,3.51,0,0,0-1.55,3.3C16.17,30.38,17.2,31.5,19.27,31.5ZM36.7,10.12a3.11,3.11,0,0,0-4.78,0,3.89,3.89,0,0,0-1,2.61,3.62,3.62,0,0,0,1,2.53,3.17,3.17,0,0,0,2.39,1,3,3,0,0,0,2.39-1.12,3.74,3.74,0,0,0,0-5.07Zm-5.2,10q.13,1.13.14,10.83T31.5,42.05h5.62Q37,40.64,37,30.94t.14-10.83Zm15.75,0v-.7A30.7,30.7,0,0,1,47.39,16H41.77a26.2,26.2,0,0,1,.14,3.38v.7H39.52v4.78a6.08,6.08,0,0,1,1.82,0h.57v8.86a13.13,13.13,0,0,0,1,5.91c.84,1.78,2.49,2.67,4.92,2.67a9.67,9.67,0,0,0,4.64-1V36.42a5.21,5.21,0,0,1-3,.85q-2.25,0-2.25-3.24V24.89h5.2V20.11Z"/></g></g></svg>