<svg xmlns="http://www.w3.org/2000/svg" viewBox="0 0 69.75 68.02"><title>github</title><g id="Layer_2" data-name="Layer 2"><g id="Layer_1-2" data-name="Layer 1"><path d="M34.45,0A36.08,36.08,0,0,1,52.17,4.5,33.51,33.51,0,0,1,69.75,34.31,35.23,35.23,0,0,1,63.21,55.2,33.42,33.42,0,0,1,46.12,67.92a1.8,1.8,0,0,1-1.75-.28,1.77,1.77,0,0,1-.64-1.41V54.42c0-3-.79-5.15-2.39-6.47a39.94,39.94,0,0,0,7.74-1.4,12.63,12.63,0,0,0,6-4.22q2.4-3.66,2.4-10a10.23,10.23,0,0,0-1-4.64,16.58,16.58,0,0,0-2.67-3.51,11.39,11.39,0,0,0,.7-3.38,15.78,15.78,0,0,0-1-6.19,6.41,6.41,0,0,0-3.94.57,37.81,37.81,0,0,0-3.94,2l-1.83,1.26a32,32,0,0,0-8.93-1.26,30.51,30.51,0,0,0-8.78,1.26l-1.83-1.26a30.93,30.93,0,0,0-4.08-2,6.06,6.06,0,0,0-3.8-.57,13.07,13.07,0,0,0-1,6.19A8.16,8.16,0,0,0,16,24.05a18.21,18.21,0,0,0-2.46,3.86,11,11,0,0,0-.77,4.43q0,6.33,2.25,9.85A11.44,11.44,0,0,0,21,46.55a39.47,39.47,0,0,0,7.6,1.4,7.67,7.67,0,0,0-2.25,4.78,8.34,8.34,0,0,1-4.64.85A6.82,6.82,0,0,1,16,49.78a7.31,7.31,0,0,0-2.25-2.53,15.11,15.11,0,0,0-2.11-1l-1-.15c-1,0-1.57.17-1.62.5s.16.68.63,1.05l.71.56a7.3,7.3,0,0,1,2,1.83,9.18,9.18,0,0,1,1.4,2.25l.56,1.13A5.69,5.69,0,0,0,17,56.67a10.37,10.37,0,0,0,4.07,1.27,15.58,15.58,0,0,0,3.52-.14l1.55-.14.14,8.57a1.77,1.77,0,0,1-.64,1.41,1.8,1.8,0,0,1-1.75.28A33.77,33.77,0,0,1,6.61,55.2,35,35,0,0,1,0,34.31,34.48,34.48,0,0,1,4.5,16.88,32.57,32.57,0,0,1,16.88,4.5,34.74,34.74,0,0,1,34.45,0ZM12.09,47.39a.56.56,0,0,1,.71-.07c.28.14.37.33.28.56s-.31.26-.63.07S12,47.58,12.09,47.39Zm1.55,1.13c.19-.19.42-.14.7.14s.33.51.14.7-.42.14-.7-.14S13.45,48.7,13.64,48.52Zm1.41,1.82a.68.68,0,0,1,.49-.07.66.66,0,0,1,.35.35c.28.38.28.66,0,.85a.26.26,0,0,1-.35,0,5.34,5.34,0,0,0-.49-.28C14.86,50.72,14.86,50.44,15.05,50.34Zm1.68,2a.46.46,0,0,1,.43-.07,1.1,1.1,0,0,1,.49.28,1.08,1.08,0,0,1,.28.5.42.42,0,0,1-.07.42c-.28.28-.61.23-1-.14a.83.83,0,0,1-.29-.57A.61.61,0,0,1,16.73,52.31ZM19,54.14c.1-.37.38-.49.85-.35s.68.33.63.56a.64.64,0,0,1-.35.49.56.56,0,0,1-.56,0,2,2,0,0,1-.5-.35C18.91,54.35,18.89,54.23,19,54.14Zm4.36.56c0-.09-.07-.18-.21-.28a1.18,1.18,0,0,0-.63-.14c-.47,0-.7.19-.7.56s.25.54.77.5S23.34,55.08,23.34,54.7Zm1.83-.84c.47,0,.73.14.77.42s-.16.52-.63.7a1.45,1.45,0,0,1-.49-.07c-.14,0-.23-.21-.28-.49S24.7,54,25.17,53.86Z"/></g></g></svg>