<svg xmlns="http://www.w3.org/2000/svg" viewBox="0 0 63 63"><defs><style>.cls-1{fill:#ffda3e;}</style></defs><title>js</title><g id="Layer_2" data-name="Layer 2"><g id="Layer_1-2" data-name="Layer 1"><path class="cls-1" d="M0,0H63V63H0ZM34.31,49.08V29h-5.9V49.08A3.85,3.85,0,0,1,27.56,52a3.27,3.27,0,0,1-2.32.77,3.15,3.15,0,0,1-2.32-.84,7,7,0,0,1-1.54-2.11l-4.79,2.81q2.54,5.49,8.86,5.49a9.05,9.05,0,0,0,6.47-2.25C33.52,54.33,34.31,52.08,34.31,49.08Zm13.92,9a11.11,11.11,0,0,0,7.11-2.18,7.39,7.39,0,0,0,2.74-6.12,7.91,7.91,0,0,0-2-5.62A20.16,20.16,0,0,0,50.2,40.5l-1.4-.56a12.66,12.66,0,0,1-2.89-1.69,2.73,2.73,0,0,1,0-3.8,2.92,2.92,0,0,1,2-.7,4.11,4.11,0,0,1,2.18.56,4.72,4.72,0,0,1,1.62,2l4.64-3A9.07,9.07,0,0,0,53,29.67a10.24,10.24,0,0,0-5-1.12,8.88,8.88,0,0,0-6.33,2.25,7.41,7.41,0,0,0-2.39,5.62,8.26,8.26,0,0,0,2,5.63,14.22,14.22,0,0,0,5.21,3.23l1.4.7a18.33,18.33,0,0,1,3.24,1.69,2.68,2.68,0,0,1,0,4.36,4.83,4.83,0,0,1-3,.85q-3.51,0-5.76-3.66L37.55,52a11.68,11.68,0,0,0,3.93,4.36A12.86,12.86,0,0,0,48.23,58.08Z"/></g></g></svg>