<svg xmlns="http://www.w3.org/2000/svg" viewBox="0 0 89.98 61.62"><defs><style>.cls-1{fill:#fb503b;}</style></defs><title>laravel</title><g id="Layer_2" data-name="Layer 2"><g id="Layer_1-2" data-name="Layer 1"><path class="cls-1" d="M89.73,28.83h-.14c.66.65.47,1.12-.56,1.4L76.8,33.47,87.91,48.52q.56.84.21,1.26a3.68,3.68,0,0,1-1.34.84L72.44,55.83Q58.79,60.62,57.53,61h-.14a5.7,5.7,0,0,1-2.67.56,3.2,3.2,0,0,1-2-1.54q-1.41-1.83-10.27-17.86-15,3.93-18.84,4.78c-2.16.56-3.7-.09-4.64-2l-3.66-8.16Q1.15,6.33.44,4.5C-.41,2.62,0,1.59,1.56,1.41L19.7,0a3.82,3.82,0,0,1,1.76.28,3.54,3.54,0,0,1,1.06,1.13L44.31,37.83l27.28-6.47-9-12.8c-.65-.94-.23-1.5,1.27-1.68l12.66-2.11a2.65,2.65,0,0,1,1.4.07A4.05,4.05,0,0,1,79.33,16l5.48,6.75Q89.31,28.41,89.73,28.83ZM40.09,39c.47-.09.52-.42.14-1L19.84,2.81a.56.56,0,0,0-.56-.28L4.38,3.8c-.1,0-.15.09-.15.28a1.18,1.18,0,0,0,.15.56l18.42,38c.09.19.18.28.28.28a4.62,4.62,0,0,0,.7-.14l10-2.39Q40,39,40.09,39Zm43,8-9-12.38a1.23,1.23,0,0,0-.5-.49,1.07,1.07,0,0,0-.63.07l-26.72,7,8.86,14.91c.28.47.52.73.7.77a1.22,1.22,0,0,0,.71-.07l26.29-9c.38-.09.57-.19.57-.28a.72.72,0,0,0-.14-.35Zm1.68-18.85c.75-.18,1-.42.85-.7q-6.9-8.58-7.74-9.7a1,1,0,0,0-1.12-.56L66.67,19c-.37.1-.42.33-.14.71l8,11Q79.76,29.39,84.81,28.12Z"/></g></g></svg>