<svg xmlns="http://www.w3.org/2000/svg" viewBox="0 0 100.25 68"><defs><style>.cls-1{fill:#687e91;}.cls-1,.cls-4,.cls-5{fill-rule:evenodd;}.cls-2,.cls-5{fill:#01758f;}.cls-3,.cls-4{fill:#f19120;}</style></defs><title>mysql</title><g id="Layer_2" data-name="Layer 2"><g id="Layer_1-2" data-name="Layer 1"><path class="cls-1" d="M68.6,7.13a4.63,4.63,0,0,0-1.15.14v.06h.06a9,9,0,0,0,.89,1.14c.22.45.42.89.64,1.34l.06-.06a1.57,1.57,0,0,0,.59-1.39,6,6,0,0,1-.34-.59c-.17-.28-.53-.42-.75-.64"/><path class="cls-2" d="M23.92,62.19H20.27q-.21-9.82-1.14-18.48h0L13.19,62.19h-3L4.36,43.71h0Q3.66,52,3.5,62.19H0q.35-12.4,1.72-23.26H6.6l5.49,16.7h0l5.52-16.7h4.68Q23.82,51.56,24.1,62"/><path class="cls-2" d="M40.9,44.9q-2.35,12.81-6.23,18.62-3,4.49-6.6,4.48a6.58,6.58,0,0,1-2.37-.57V65.37a12.49,12.49,0,0,0,1.61.1A3.9,3.9,0,0,0,30,64.54,3.36,3.36,0,0,0,31.25,62a16.72,16.72,0,0,0-1-3.93L26.05,44.9h3.8l3,9.85a13.31,13.31,0,0,1,.86,4.69A64.47,64.47,0,0,0,37.24,44.9Z"/><polygon class="cls-3" points="92.5 62.19 81.17 62.19 81.17 38.94 84.75 38.94 84.75 59.21 92.5 59.21 92.5 62.19 92.5 62.19"/><path class="cls-4" d="M64.72,57.38c-.93-1.51-1.4-3.92-1.4-7.25q0-8.73,5.3-8.73a4.45,4.45,0,0,1,4.08,2.09c.93,1.5,1.4,3.9,1.4,7.18q0,8.8-5.31,8.8a4.46,4.46,0,0,1-4.07-2.09m13.76,5.18-4.25-2.09a8.06,8.06,0,0,0,1.07-1Q78,56.25,78,50q0-11.46-9-11.46a8.53,8.53,0,0,0-6.88,2.91q-2.7,3.18-2.7,9.37c0,4.07.8,7,2.39,8.94q2.19,2.56,6.61,2.56a10.61,10.61,0,0,0,3-.4L77,65.16l1.51-2.6Z"/><path class="cls-3" d="M57.81,55.6a6.1,6.1,0,0,1-2.16,4.82,8.44,8.44,0,0,1-5.78,1.89,11.62,11.62,0,0,1-6.57-2.16l1-2a11.19,11.19,0,0,0,5,1.37,5.23,5.23,0,0,0,3.27-.92,3.13,3.13,0,0,0,1.26-2.56c0-1.38-1-2.55-2.71-3.53s-4.86-2.75-4.86-2.75a5.52,5.52,0,0,1-2.64-4.91,5.75,5.75,0,0,1,2-4.54,7.43,7.43,0,0,1,5.08-1.73,10.49,10.49,0,0,1,5.85,1.71l-.89,2a11.26,11.26,0,0,0-4.45-1,3.92,3.92,0,0,0-2.73.86,2.86,2.86,0,0,0-1,2.19c0,1.36,1,2.55,2.78,3.55,1.64.89,5,2.79,5,2.79a5.43,5.43,0,0,1,2.71,4.88"/><path class="cls-5" d="M97,31.16a13.08,13.08,0,0,0-5.42.78c-.42.17-1.09.17-1.14.7.22.22.25.59.44.89a6.47,6.47,0,0,0,1.46,1.71c.58.44,1.17.89,1.78,1.28,1.09.67,2.32,1.06,3.38,1.73.61.39,1.23.89,1.84,1.31.31.23.5.59.89.73V40.2a7.41,7.41,0,0,0-.48-.89c-.28-.28-.56-.53-.84-.81A13.37,13.37,0,0,0,96,35.68c-.89-.61-2.85-1.45-3.21-2.48l-.06-.06a10.61,10.61,0,0,0,1.93-.45c1-.25,1.81-.19,2.79-.44l1.58-.39v-.25c-.5-.5-.87-1.17-1.4-1.65a36.17,36.17,0,0,0-4.6-3.43c-.87-.56-2-.92-2.91-1.4-.33-.16-.89-.25-1.08-.53a10.53,10.53,0,0,1-1.15-2.15c-.81-1.53-1.59-3.23-2.29-4.86a31.37,31.37,0,0,0-1.42-3.18A28.17,28.17,0,0,0,73.4,4a13.35,13.35,0,0,0-3.57-1.14c-.7,0-1.39-.09-2.09-.11a11.51,11.51,0,0,1-1.29-1c-1.59-1-5.69-3.18-6.86-.31C58.83,3.25,60.7,5,61.35,6a14.08,14.08,0,0,1,1.42,2.1c.19.47.25,1,.45,1.48a31.81,31.81,0,0,0,1.45,3.74,12.53,12.53,0,0,0,1,1.73c.22.31.61.44.7.95A7.86,7.86,0,0,0,65.76,18a12.24,12.24,0,0,0,.81,9.38c.44.7,1.5,2.24,2.93,1.65,1.25-.5,1-2.09,1.34-3.49.08-.34,0-.56.19-.78v-.15c.38.79.75,1.55,1.1,2.34a16,16,0,0,0,3.5,3.78c.64.51,1.15,1.38,2,1.69v-.09h0a3,3,0,0,0-.62-.56,14.76,14.76,0,0,1-1.4-1.69,36.63,36.63,0,0,1-3-5.14c-.43-.87-.81-1.83-1.16-2.7-.16-.34-.16-.85-.43-1a11.1,11.1,0,0,0-1.29,1.92,16.7,16.7,0,0,0-.75,4.26c-.11,0,0,0-.11,0-.86-.22-1.15-1.15-1.48-1.94A12.81,12.81,0,0,1,67.05,18c.19-.59,1-2.46.67-3-.16-.54-.69-.84-1-1.27a11.58,11.58,0,0,1-1-1.8c-.64-1.58-1-3.33-1.66-4.91a14.8,14.8,0,0,0-1.35-2.17,15.09,15.09,0,0,1-1.48-2.2c-.13-.31-.32-.82-.11-1.16a.46.46,0,0,1,.38-.37c.35-.31,1.35.09,1.69.26A13.54,13.54,0,0,1,65.9,2.79c.37.28.78.81,1.26,1h.2c.9.19,1.9,0,2.74.3a18.24,18.24,0,0,1,4,1.93,24.84,24.84,0,0,1,8.71,9.55c.33.64.47,1.22.78,1.89.58,1.37,1.31,2.77,1.9,4.11a18,18,0,0,0,2,3.74c.42.58,2.09.89,2.85,1.2a19.25,19.25,0,0,1,1.92.78c.95.58,1.9,1.25,2.79,1.9.45.33,1.84,1,1.93,1.59"/><path class="cls-3" d="M94.89,62.19h.59V59.81h1.2v-.6H94.29v.6h.6v2.38Zm4.77,0h.59v-3h-.81l-.66,2-.72-2h-.79v3h.6V59.81h-.26l.81,2.38h.41l.83-2.34v2.34Z"/></g></g></svg>