<svg xmlns="http://www.w3.org/2000/svg" viewBox="0 0 90 47.25"><defs><style>.cls-1{fill:#6082bb;}</style></defs><title>php</title><g id="Layer_2" data-name="Layer 2"><g id="Layer_1-2" data-name="Layer 1"><path class="cls-1" d="M45,0A76.14,76.14,0,0,1,67.64,3.23Q77.9,6.33,84,11.74t6,11.88q0,6.48-6,11.89T67.64,44A76.14,76.14,0,0,1,45,47.25,76.14,76.14,0,0,1,22.36,44Q12.1,40.92,6.05,35.51T0,23.62q0-6.47,6.05-11.88T22.36,3.23A76.14,76.14,0,0,1,45,0Zm0,2.25v.14A77.88,77.88,0,0,0,23.2,5.34Q13.64,8.3,8,13.22T2.39,23.62Q2.39,29.11,8,34T23.2,41.91a77.88,77.88,0,0,0,21.8,3,77.88,77.88,0,0,0,21.8-3Q76.36,39,82,34t5.63-10.41q0-5.48-5.63-10.4T66.8,5.34A74.35,74.35,0,0,0,45,2.25ZM13.64,36.84l4.64-23.62h10q4.5,0,6.46,2.25a7.12,7.12,0,0,1,1.41,6,10.24,10.24,0,0,1-3.37,6.32A8.31,8.31,0,0,1,28,30.23a28.1,28.1,0,0,1-6,.43l-1.83-.14-1.27,6.32Zm17-15.18v.14a5.18,5.18,0,0,0-.22-3.45A3.09,3.09,0,0,0,28.12,17a35.23,35.23,0,0,0-3.93-.14H22.78l-2,10h1.27a17.51,17.51,0,0,0,5.48-.56Q30,25.18,30.66,21.66ZM39.8,6.89,35.16,30.52h5.2L43,17h5.06a2.36,2.36,0,0,1,1.55.63A2.25,2.25,0,0,1,50,19.27c-.05.75-.4,2.71-1.05,5.9l-1.13,5.35H53l1.12-5.07c.75-3.93,1.17-6.42,1.27-7.45a4.32,4.32,0,0,0-1.13-3.3,6.94,6.94,0,0,0-3.66-1.48c-1-.1-2.76-.14-5.2-.14H43.73L45,6.89Zm14.2,30,4.64-23.62h10q4.5,0,6.47,2.25c1.32,1.5,1.76,3.51,1.34,6a10.85,10.85,0,0,1-3.31,6.32,8.26,8.26,0,0,1-4.78,2.39,29,29,0,0,1-6.18.43l-1.69-.14L59.2,36.84ZM71,21.66a4.83,4.83,0,0,0-.22-3.31A3.09,3.09,0,0,0,68.48,17a35.23,35.23,0,0,0-3.93-.14H63.14l-2,10h1.27a18.36,18.36,0,0,0,5.48-.56Q70.32,25.18,71,21.66Z"/></g></g></svg>