<svg xmlns="http://www.w3.org/2000/svg" viewBox="0 0 72 63.13"><defs><style>.cls-1{fill:#61dafb;}</style></defs><title>Asset 1</title><g id="Layer_2" data-name="Layer 2"><g id="Layer_1-2" data-name="Layer 1"><path class="cls-1" d="M58.78,20.46a33.7,33.7,0,0,1,9.56,5Q72,28.35,72,31.57T68.13,37.9A30.89,30.89,0,0,1,57.94,43l-1.27.42.42,2A27,27,0,0,1,57.45,56c-.61,3.09-1.86,5.16-3.73,6.19s-4.2,1.08-7,.14A28.89,28.89,0,0,1,38,57.17l-1.83-1.83-1.55,1.4a27.9,27.9,0,0,1-9.07,5.63q-4.43,1.55-7.24-.07t-3.66-6a27.5,27.5,0,0,1,.29-10.26l.56-2.53-2-.57a31.24,31.24,0,0,1-9.77-5.2C1.24,35.7,0,33.63,0,31.57s1.17-4.08,3.52-6a28.67,28.67,0,0,1,9.42-4.93l2.53-.84-.42-2.39A26.62,26.62,0,0,1,14.62,7c.57-2.9,1.79-4.9,3.66-6S22.59-.12,25.59.92a27.45,27.45,0,0,1,9.29,5.9L36,8l1.83-1.69A27.76,27.76,0,0,1,46.69.7q4.22-1.47,7,.15t3.66,6.32a29.85,29.85,0,0,1-.43,11l-.42,1.55A19.4,19.4,0,0,0,58.78,20.46ZM16.31,40.71a59.8,59.8,0,0,1,3.52-9.14,61.07,61.07,0,0,1-3.52-9l-2.39.85a27.85,27.85,0,0,0-7.87,3.93q-3,2.25-3,4.22a5.63,5.63,0,0,0,2.53,4.22,31.39,31.39,0,0,0,8.86,4.36C15.14,40.34,15.75,40.53,16.31,40.71ZM32.62,54.49,34,53.23A65.85,65.85,0,0,1,28,45.63a65.39,65.39,0,0,1-9.56-1.26l-.56,2.25a24,24,0,0,0-.42,8.44q.55,3.51,2.39,4.5a6,6,0,0,0,4.92-.14A24.68,24.68,0,0,0,32.62,54.49ZM19.69,3.59c-1.13.65-1.85,2.18-2.18,4.57A26.79,26.79,0,0,0,18,16.81l.42,2.11a83.82,83.82,0,0,1,9.42-1.41,76.8,76.8,0,0,1,6.05-7.45l-1-1a27.07,27.07,0,0,0-7.74-5.13C22.73,3,20.91,2.84,19.69,3.59Zm1.83,24.47c.56-1.13,1.21-2.35,2-3.66q1-1.68,2.25-3.66a59,59,0,0,0-6.46,1.13Q20.25,25,21.52,28.06Zm0,7a56.87,56.87,0,0,0-2.25,6.33,48.21,48.21,0,0,0,6.46,1c-.65-.94-1.4-2.11-2.25-3.52C22.92,37.76,22.27,36.49,21.52,35.09Zm1.54-3.52q1.55,3.09,3.1,5.84t3.37,5.41c2.16.1,4.34.14,6.54.14s4.34-.09,6.4-.28C43.78,40.81,45,39,46,37.13s2-3.68,3-5.56c-1-2.06-2.06-4-3.1-5.83a55.58,55.58,0,0,0-3.37-5.28c-2.16-.18-4.31-.28-6.47-.28s-4.31.1-6.47.28a60.43,60.43,0,0,0-3.37,5.35Q24.47,28.9,23.06,31.57ZM36,25.1a6.46,6.46,0,0,0-4.57,11,6.47,6.47,0,0,0,11-4.57A6.49,6.49,0,0,0,36,25.1Zm0-12.93a54.12,54.12,0,0,0-4.22,5.06c2.81-.1,5.63-.1,8.44,0A54.12,54.12,0,0,0,36,12.17ZM36.14,51q2.25-2.53,4.08-5.06c-1.31.09-2.7.14-4.15.14s-2.84-.05-4.15-.14A37.85,37.85,0,0,0,36.14,51ZM39.8,8.51l-1.69,1.55a76.8,76.8,0,0,1,6,7.45,68,68,0,0,1,9.42,1.55l.28-1.41a28.1,28.1,0,0,0,.63-9.21Q54,4.57,52.17,3.52T47,3.87A27.87,27.87,0,0,0,39.8,8.51ZM54.56,55.2h-.14a25.52,25.52,0,0,0-.28-9.28l-.42-1.69a79.41,79.41,0,0,1-9.56,1.4,74.24,74.24,0,0,1-5.91,7.6l1.83,1.55a27.21,27.21,0,0,0,7.1,4.57c2.2.89,3.87,1,5,.35A6.31,6.31,0,0,0,54.56,55.2Zm-6-16.46Q47.25,41,46.27,42.4c2.25-.28,4.45-.66,6.61-1.12a59.45,59.45,0,0,0-2.26-6.19C49.88,36.49,49.17,37.71,48.52,38.74Zm2-10.68a40.93,40.93,0,0,0,2.25-6.19,60.19,60.19,0,0,0-6.32-1.13c.65,1.22,1.36,2.44,2.11,3.66C49.08,25.34,49.73,26.56,50.48,28.06Zm6.61,12.09a33.22,33.22,0,0,0,8.51-4.22c2.2-1.59,3.31-3,3.31-4.36s-1-2.74-3.1-4.29a29,29,0,0,0-8-4l-2.11-.57a66.83,66.83,0,0,1-3.38,8.86,75.81,75.81,0,0,1,3.52,8.86A4.33,4.33,0,0,0,57.09,40.15Z"/></g></g></svg>